<svg xmlns="http://www.w3.org/2000/svg" width="37" height="37" viewBox="0 0 37 37">
    <g fill="none" fill-rule="evenodd">
        <g>
            <g>
                <path d="M0 0H37V37H0z" transform="translate(-91 -79) translate(91 79)"/>
                <path fill="#FFFFFF" d="M17.625 10c4.211 0 7.625 3.414 7.625 7.625 0 1.688-.549 3.249-1.478 4.512l6.481 4.605c.27.192.334.567.142.837-.192.27-.567.333-.837.141l-6.574-4.671c-1.377 1.36-3.27 2.201-5.359 2.201-4.211 0-7.625-3.414-7.625-7.625S13.414 10 17.625 10zm0 1.12c-3.593 0-6.505 2.912-6.505 6.505s2.912 6.505 6.505 6.505 6.505-2.912 6.505-6.505-2.912-6.505-6.505-6.505z" transform="translate(-91 -79) translate(91 79)"/>
            </g>
        </g>
    </g>
</svg>
